<svg width="25" height="25" viewBox="0 0 25 25" fill="none" xmlns="http://www.w3.org/2000/svg">
<path d="M10.3998 21.4083C10.5866 21.4828 10.7792 21.5424 10.9733 21.5872C11.2174 22.1477 11.5204 22.6754 11.8763 23.1629C11.1839 23.178 10.4956 23.0513 9.85276 22.7902L1.38674 19.3584C0.977325 19.1925 0.626378 18.9059 0.379192 18.5357C0.132006 18.1656 -7.36221e-05 17.7288 3.07871e-08 17.2818V5.88322C0.000220234 5.43647 0.132437 5.00002 0.379604 4.63015C0.626771 4.26028 0.977558 3.97394 1.38674 3.80804L9.85276 0.37327C11.08 -0.124423 12.449 -0.124423 13.6762 0.37327L22.1423 3.80655C22.9805 4.14496 23.529 4.96788 23.529 5.88173V11.9641C23.0753 11.5845 22.5822 11.2561 22.0584 10.9847V5.88322C22.0584 5.73436 22.0144 5.58892 21.9321 5.46563C21.8498 5.34235 21.733 5.24687 21.5967 5.19149L13.1292 1.7597C12.2531 1.40466 11.2759 1.40466 10.3998 1.7597L1.93232 5.19149C1.79602 5.24687 1.67919 5.34235 1.59689 5.46563C1.5146 5.58892 1.4706 5.73436 1.47056 5.88322V17.2818C1.4703 17.4309 1.51416 17.5767 1.59648 17.7002C1.6788 17.8238 1.79578 17.9195 1.93232 17.975L10.3998 21.4083ZM5.44549 5.68345C5.26725 5.60319 5.06486 5.59799 4.88285 5.66901C4.70083 5.74002 4.55409 5.88142 4.47492 6.06211C4.39575 6.2428 4.39062 6.44797 4.46067 6.6325C4.53072 6.81702 4.6702 6.96577 4.84844 7.04603L11.0292 9.83082V14.8712C11.3978 14.0595 11.8945 13.3143 12.4998 12.6648V9.83231L18.6805 7.04603C18.7688 7.00629 18.8485 6.94932 18.915 6.87836C18.9815 6.80741 19.0336 6.72386 19.0683 6.6325C19.103 6.54113 19.1196 6.44373 19.1172 6.34587C19.1147 6.248 19.0933 6.15158 19.0541 6.06211C19.0149 5.97264 18.9587 5.89188 18.8887 5.82443C18.8187 5.75698 18.7363 5.70417 18.6461 5.66901C18.556 5.63384 18.4599 5.61702 18.3634 5.6195C18.2669 5.62198 18.1718 5.64371 18.0835 5.68345L11.7645 8.53086L5.44549 5.68345ZM22.0584 23.8696C21.3358 24.359 20.5251 24.6993 19.6727 24.8712C18.8203 25.043 17.9429 25.0429 17.0905 24.871C16.2382 24.6991 15.4275 24.3586 14.705 23.8691C13.9824 23.3796 13.362 22.7506 12.8792 22.018C11.9041 20.5385 11.5488 18.7269 11.8913 16.9818C12.2338 15.2367 13.2462 13.701 14.7056 12.7125C16.1651 11.7241 17.9521 11.3638 19.6735 11.7111C21.395 12.0583 22.9098 13.0846 23.8849 14.5641C24.8599 16.0436 25.2153 17.8552 24.8727 19.6003C24.5302 21.3454 23.5179 22.8811 22.0584 23.8696ZM18.9026 14.7832C18.7999 14.6788 18.6689 14.6076 18.5262 14.5787C18.3835 14.5498 18.2356 14.5644 18.1011 14.6208C17.9667 14.6771 17.8517 14.7726 17.7709 14.8952C17.69 15.0178 17.6468 15.162 17.6467 15.3095V17.5456H15.4409C15.2459 17.5456 15.0589 17.6242 14.921 17.764C14.7831 17.9038 14.7056 18.0933 14.7056 18.291C14.7056 18.4887 14.7831 18.6783 14.921 18.8181C15.0589 18.9579 15.2459 19.0364 15.4409 19.0364H17.6467V21.2726C17.6467 21.4703 17.7242 21.6599 17.8621 21.7997C18 21.9395 18.187 22.018 18.382 22.018C18.577 22.018 18.7641 21.9395 18.9019 21.7997C19.0398 21.6599 19.1173 21.4703 19.1173 21.2726V19.0364H21.3231C21.5182 19.0364 21.7052 18.9579 21.8431 18.8181C21.981 18.6783 22.0584 18.4887 22.0584 18.291C22.0584 18.0933 21.981 17.9038 21.8431 17.764C21.7052 17.6242 21.5182 17.5456 21.3231 17.5456H19.1173V15.3095C19.1175 15.2115 19.0986 15.1145 19.0618 15.0239C19.0249 14.9334 18.9708 14.8526 18.9026 14.7832Z" fill="black"/>
</svg>
