<svg width="20" height="26" viewBox="0 0 20 26" fill="none" xmlns="http://www.w3.org/2000/svg">
<path d="M12.5714 1V6.33333C12.5714 6.68696 12.7069 7.02609 12.948 7.27614C13.1891 7.52619 13.5162 7.66667 13.8571 7.66667H19M12.5714 1H3.57143C2.88944 1 2.23539 1.28095 1.75315 1.78105C1.27092 2.28115 1 2.95942 1 3.66667V22.3333C1 23.0406 1.27092 23.7189 1.75315 24.219C2.23539 24.719 2.88944 25 3.57143 25H16.4286C17.1106 25 17.7646 24.719 18.2468 24.219C18.7291 23.7189 19 23.0406 19 22.3333V7.66667M12.5714 1L19 7.66667M10 10.3333V15.6667M7.42857 13H12.5714M7.42857 19.6667H12.5714" stroke="black" stroke-width="2" stroke-linecap="round" stroke-linejoin="round"/>
</svg>
