<svg width="28" height="32" viewBox="0 0 28 32" fill="none" xmlns="http://www.w3.org/2000/svg">
<path d="M21.6451 29.6871L25.6599 25.5542C25.9264 25.2799 26.1377 24.9544 26.2819 24.5961C26.4261 24.2377 26.5003 23.8537 26.5003 23.4658C26.5003 23.078 26.4261 22.6939 26.2819 22.3356C26.1377 21.9773 25.9264 21.6517 25.6599 21.3775L15.5775 11M5.25 15.9685H5.23583M7.88358 11.5935H3.86875C3.10791 11.5935 2.37823 11.9047 1.84024 12.4585C1.30224 13.0123 1 13.7634 1 14.5467V18.6796C1 19.4627 1.30175 20.2137 1.84008 20.7679L10.5044 29.6871C10.7708 29.9614 11.0871 30.1789 11.4352 30.3274C11.7832 30.4758 12.1563 30.5522 12.5331 30.5522C12.9098 30.5522 13.2829 30.4758 13.631 30.3274C13.9791 30.1789 14.2954 29.9614 14.5617 29.6871L18.5766 25.5542C18.843 25.2799 19.0544 24.9544 19.1986 24.596C19.3428 24.2377 19.417 23.8537 19.417 23.4658C19.417 23.078 19.3428 22.6939 19.1986 22.3356C19.0544 21.9773 18.843 21.6517 18.5766 21.3775L9.91083 12.4583C9.37312 11.9049 8.64396 11.5938 7.88358 11.5935Z" stroke="black" stroke-width="2" stroke-linecap="round" stroke-linejoin="round"/>
<path d="M21.5 2.70833V10.2917M17.7083 6.5H25.2917" stroke="black" stroke-width="2" stroke-linecap="round" stroke-linejoin="round"/>
</svg>
