<svg width="26" height="26" viewBox="0 0 26 26" fill="none" xmlns="http://www.w3.org/2000/svg">
<path d="M23.8 7.6L19 10M19 10L18.4 10.3L13 13M19 10V14.2M19 10L7.6 4M13 13L2.2 7.6M13 13V24.4M17.2936 2.6584L19.6936 3.9184C22.2748 5.2732 23.566 5.95 24.2836 7.168C25 8.3848 25 9.9004 25 12.928V13.0684C25 16.0984 25 17.614 24.2836 18.8308C23.566 20.0488 22.2748 20.7268 19.6936 22.0816L17.2936 23.3404C15.1864 24.4468 14.1328 25 13 25C11.8672 25 10.8136 24.448 8.7064 23.3416L6.3064 22.0816C3.7252 20.7268 2.434 20.05 1.7164 18.832C1 17.6152 1 16.0996 1 13.072V12.9316C1 9.9016 1 8.386 1.7164 7.1692C2.434 5.9512 3.7252 5.2732 6.3064 3.9196L8.7064 2.6596C10.8136 1.5532 11.8672 1 13 1C14.1328 1 15.1864 1.552 17.2936 2.6584Z" stroke="black" stroke-width="1.5" stroke-linecap="round"/>
</svg>
