<svg width="30" height="30" viewBox="0 0 30 30" fill="none" xmlns="http://www.w3.org/2000/svg">
<path fill-rule="evenodd" clip-rule="evenodd" d="M25 3.75H5C3.625 3.75 2.5 4.875 2.5 6.25V23.75C2.5 25.125 3.625 26.25 5 26.25H25C26.375 26.25 27.5 25.125 27.5 23.75V6.25C27.5 4.875 26.375 3.75 25 3.75ZM12.5 21.25H6.25V18.75H12.5V21.25ZM12.5 16.25H6.25V13.75H12.5V16.25ZM12.5 11.25H6.25V8.75H12.5V11.25ZM18.525 18.75L15 15.2L16.7625 13.4375L18.525 15.2125L22.4875 11.25L24.2625 13.025L18.525 18.75Z" fill="black"/>
</svg>
