<svg width="30" height="30" viewBox="0 0 30 30" fill="none" xmlns="http://www.w3.org/2000/svg">
<g clip-path="url(#clip0_3_7)">
<path d="M16.5 3.3125C16.0673 2.98794 15.5409 2.8125 15 2.8125C14.4591 2.8125 13.9327 2.98794 13.5 3.3125L4.75 9.875C4.43951 10.1079 4.1875 10.4098 4.01393 10.757C3.84036 11.1041 3.75 11.4869 3.75 11.875V23.75C3.75 24.413 4.01339 25.0489 4.48223 25.5178C4.95107 25.9866 5.58696 26.25 6.25 26.25H11.125C11.4897 26.25 11.8394 26.1051 12.0973 25.8473C12.3551 25.5894 12.5 25.2397 12.5 24.875V18.75C12.5 18.087 12.7634 17.4511 13.2322 16.9822C13.7011 16.5134 14.337 16.25 15 16.25C15.663 16.25 16.2989 16.5134 16.7678 16.9822C17.2366 17.4511 17.5 18.087 17.5 18.75V24.875C17.5 25.2397 17.6449 25.5894 17.9027 25.8473C18.1606 26.1051 18.5103 26.25 18.875 26.25H23.75C24.413 26.25 25.0489 25.9866 25.5178 25.5178C25.9866 25.0489 26.25 24.413 26.25 23.75V11.875C26.25 11.4869 26.1596 11.1041 25.9861 10.757C25.8125 10.4098 25.5605 10.1079 25.25 9.875L16.5 3.3125Z" fill="black"/>
</g>
<defs>
<clipPath id="clip0_3_7">
<rect width="30" height="30" fill="white"/>
</clipPath>
</defs>
</svg>
