<svg width="21" height="21" viewBox="0 0 21 21" fill="none" xmlns="http://www.w3.org/2000/svg">
<path d="M13 6H13.01M10.5 19H4C3.20435 19 2.44129 18.6839 1.87868 18.1213C1.31607 17.5587 1 16.7956 1 16V4C1 3.20435 1.31607 2.44129 1.87868 1.87868C2.44129 1.31607 3.20435 1 4 1H16C16.7956 1 17.5587 1.31607 18.1213 1.87868C18.6839 2.44129 19 3.20435 19 4V10.5M1 14L6 9C6.928 8.107 8.072 8.107 9 9L12 12L13 11C13.616 10.407 14.328 10.208 15.008 10.402M15 19L19 15M14 17C14 17.7956 14.3161 18.5587 14.8787 19.1213C15.4413 19.6839 16.2044 20 17 20C17.7956 20 18.5587 19.6839 19.1213 19.1213C19.6839 18.5587 20 17.7956 20 17C20 16.2044 19.6839 15.4413 19.1213 14.8787C18.5587 14.3161 17.7956 14 17 14C16.2044 14 15.4413 14.3161 14.8787 14.8787C14.3161 15.4413 14 16.2044 14 17Z" stroke="black" stroke-width="2" stroke-linecap="round" stroke-linejoin="round"/>
</svg>
