<svg width="30" height="30" viewBox="0 0 30 30" fill="none" xmlns="http://www.w3.org/2000/svg">
<g clip-path="url(#clip0_1_3)">
<path fill-rule="evenodd" clip-rule="evenodd" d="M11.25 16.25C11.913 16.25 12.5489 16.5134 13.0178 16.9822C13.4866 17.4511 13.75 18.087 13.75 18.75V23.75C13.75 24.413 13.4866 25.0489 13.0178 25.5178C12.5489 25.9866 11.913 26.25 11.25 26.25H6.25C5.58696 26.25 4.95107 25.9866 4.48223 25.5178C4.01339 25.0489 3.75 24.413 3.75 23.75V18.75C3.75 18.087 4.01339 17.4511 4.48223 16.9822C4.95107 16.5134 5.58696 16.25 6.25 16.25H11.25ZM23.75 16.25C24.413 16.25 25.0489 16.5134 25.5178 16.9822C25.9866 17.4511 26.25 18.087 26.25 18.75V23.75C26.25 24.413 25.9866 25.0489 25.5178 25.5178C25.0489 25.9866 24.413 26.25 23.75 26.25H18.75C18.087 26.25 17.4511 25.9866 16.9822 25.5178C16.5134 25.0489 16.25 24.413 16.25 23.75V18.75C16.25 18.087 16.5134 17.4511 16.9822 16.9822C17.4511 16.5134 18.087 16.25 18.75 16.25H23.75ZM11.25 3.75C11.913 3.75 12.5489 4.01339 13.0178 4.48223C13.4866 4.95107 13.75 5.58696 13.75 6.25V11.25C13.75 11.913 13.4866 12.5489 13.0178 13.0178C12.5489 13.4866 11.913 13.75 11.25 13.75H6.25C5.58696 13.75 4.95107 13.4866 4.48223 13.0178C4.01339 12.5489 3.75 11.913 3.75 11.25V6.25C3.75 5.58696 4.01339 4.95107 4.48223 4.48223C4.95107 4.01339 5.58696 3.75 6.25 3.75H11.25ZM23.75 3.75C24.413 3.75 25.0489 4.01339 25.5178 4.48223C25.9866 4.95107 26.25 5.58696 26.25 6.25V11.25C26.25 11.913 25.9866 12.5489 25.5178 13.0178C25.0489 13.4866 24.413 13.75 23.75 13.75H18.75C18.087 13.75 17.4511 13.4866 16.9822 13.0178C16.5134 12.5489 16.25 11.913 16.25 11.25V6.25C16.25 5.58696 16.5134 4.95107 16.9822 4.48223C17.4511 4.01339 18.087 3.75 18.75 3.75H23.75Z" fill="black"/>
</g>
<defs>
<clipPath id="clip0_1_3">
<rect width="30" height="30" fill="white"/>
</clipPath>
</defs>
</svg>
