<svg width="30" height="30" viewBox="0 0 30 30" fill="none" xmlns="http://www.w3.org/2000/svg">
<path fill-rule="evenodd" clip-rule="evenodd" d="M14.3375 2.69C14.5362 2.56584 14.7657 2.5 15 2.5C15.2343 2.5 15.4638 2.56584 15.6625 2.69L24.2925 8.08375L15 13.55L5.7075 8.08375L14.3375 2.69ZM3.76 9.83875C3.75319 9.89223 3.74985 9.94609 3.75 10V20C3.75 20.212 3.80392 20.4205 3.90669 20.606C4.00947 20.7914 4.15772 20.9476 4.3375 21.06L13.75 26.9425V15.715L3.76 9.83875ZM16.25 26.9425L25.6625 21.06C25.8423 20.9476 25.9905 20.7914 26.0933 20.606C26.1961 20.4205 26.25 20.212 26.25 20V10C26.25 9.94625 26.2462 9.89125 26.24 9.83875L16.25 15.7138V26.9425Z" fill="black"/>
</svg>
