<svg width="34" height="35" viewBox="0 0 34 35" fill="none" xmlns="http://www.w3.org/2000/svg">
<path d="M24.8951 26.8435L28.9099 22.7106C29.1764 22.4364 29.3877 22.1108 29.5319 21.7525C29.6761 21.3942 29.7503 21.0101 29.7503 20.6223C29.7503 20.2345 29.6761 19.8504 29.5319 19.4921C29.3877 19.1338 29.1764 18.8082 28.9099 18.534L18.8275 8.15646M8.5 13.125H8.48583M11.1336 8.75H7.11875C6.35791 8.75 5.62823 9.06113 5.09024 9.61495C4.55224 10.1688 4.25 10.9199 4.25 11.7031V15.836C4.25 16.6192 4.55175 17.3702 5.09008 17.9244L13.7544 26.8435C14.0208 27.1178 14.3371 27.3354 14.6852 27.4838C15.0332 27.6323 15.4063 27.7087 15.7831 27.7087C16.1598 27.7087 16.5329 27.6323 16.881 27.4838C17.2291 27.3354 17.5454 27.1178 17.8117 26.8435L21.8266 22.7106C22.093 22.4364 22.3044 22.1108 22.4486 21.7525C22.5928 21.3942 22.667 21.0101 22.667 20.6223C22.667 20.2344 22.5928 19.8504 22.4486 19.4921C22.3044 19.1338 22.093 18.8082 21.8266 18.534L13.1608 9.61479C12.6231 9.06135 11.894 8.7503 11.1336 8.75Z" stroke="black" stroke-width="2" stroke-linecap="round" stroke-linejoin="round"/>
</svg>
