<svg width="24" height="29" viewBox="0 0 24 29" fill="none" xmlns="http://www.w3.org/2000/svg">
<path d="M6.17647 3.84211H3.58824C2.90179 3.84211 2.24346 4.14154 1.75808 4.67454C1.27269 5.20754 1 5.93044 1 6.68421V23.7368C1 24.4906 1.27269 25.2135 1.75808 25.7465C2.24346 26.2795 2.90179 26.5789 3.58824 26.5789H10.9608M6.17647 3.84211C6.17647 3.08833 6.44916 2.36543 6.93455 1.83243C7.41994 1.29944 8.07826 1 8.76471 1H11.3529C12.0394 1 12.6977 1.29944 13.1831 1.83243C13.6685 2.36543 13.9412 3.08833 13.9412 3.84211M6.17647 3.84211C6.17647 4.59588 6.44916 5.31878 6.93455 5.85178C7.41994 6.38478 8.07826 6.68421 8.76471 6.68421H11.3529C12.0394 6.68421 12.6977 6.38478 13.1831 5.85178C13.6685 5.31878 13.9412 4.59588 13.9412 3.84211M19.1176 13.7895V6.68421C19.1176 5.93044 18.845 5.20754 18.3596 4.67454C17.8742 4.14154 17.2159 3.84211 16.5294 3.84211H13.9412M6.17647 12.3684H11.3529M6.17647 18.0526H10.0588M19.7647 24.4474L23 28M13.9412 21.6053C13.9412 22.5475 14.282 23.4511 14.8888 24.1174C15.4955 24.7836 16.3184 25.1579 17.1765 25.1579C18.0345 25.1579 18.8574 24.7836 19.4642 24.1174C20.0709 23.4511 20.4118 22.5475 20.4118 21.6053C20.4118 20.663 20.0709 19.7594 19.4642 19.0932C18.8574 18.4269 18.0345 18.0526 17.1765 18.0526C16.3184 18.0526 15.4955 18.4269 14.8888 19.0932C14.282 19.7594 13.9412 20.663 13.9412 21.6053Z" stroke="black" stroke-width="2" stroke-linecap="round" stroke-linejoin="round"/>
</svg>
